<svg xmlns="http://www.w3.org/2000/svg" viewBox="0 0 171.02 171.02"><defs><style>.cls-1{fill:#fff;}.cls-2{fill:#ff4c4c;}</style></defs><title>action-call_1</title><g id="Layer_2" data-name="Layer 2"><g id="Layer_1_copy" data-name="Layer 1 copy"><rect class="cls-1" width="171.02" height="171.02"/><path class="cls-2" d="M105.55,40.06a7.63,7.63,0,0,1,2.92.58,7.37,7.37,0,0,1,2.42,1.59,8.54,8.54,0,0,1,1.67,2.42,5.39,5.39,0,0,1,.5,2.92l.17,70.47a13.07,13.07,0,0,1-.67,2.92,5.62,5.62,0,0,1-1.67,2.42,10.71,10.71,0,0,1-2.42,1.59,7.3,7.3,0,0,1-3.09.58H65.47a7.29,7.29,0,0,1-3.09-.58A10.67,10.67,0,0,1,60,123.39,5.59,5.59,0,0,1,58.29,121a13,13,0,0,1-.67-2.92l.17-70.47a5.34,5.34,0,0,1,.5-2.92A8.5,8.5,0,0,1,60,42.23a7.34,7.34,0,0,1,2.42-1.59,7.62,7.62,0,0,1,2.92-.58Zm-40.24,5a3.21,3.21,0,0,0-1,.17,1.35,1.35,0,0,0-.75.58,7.58,7.58,0,0,1-.58.83.92.92,0,0,0-.17.92l-.17,7.51h45.59l-.17-7.51a.93.93,0,0,0-.17-.92,7.08,7.08,0,0,1-.58-.83,1.35,1.35,0,0,0-.75-.58,3.21,3.21,0,0,0-1-.17Zm42.92,15H62.63l.17,40.25h45.26Zm-2.84,60.45a2.91,2.91,0,0,0,1.17-.17,3.09,3.09,0,0,0,.75-.58,2.54,2.54,0,0,0,.58-.83c.11-.28.22-.58.33-.92l-.17-12.52H62.8L62.63,118c.11.33.22.64.33.92a2.47,2.47,0,0,0,.58.83,3,3,0,0,0,.75.58,2.88,2.88,0,0,0,1.17.17ZM88,113a6.27,6.27,0,0,1-.25-1,1.34,1.34,0,0,0-.5-.83,3.44,3.44,0,0,0-.83-.5,3,3,0,0,0-1.08-.17,3.65,3.65,0,0,0-.92.17,1.53,1.53,0,0,0-.83.5,5.6,5.6,0,0,0-.5.83,1.26,1.26,0,0,0-.08,1,1,1,0,0,0,.08.92,8.5,8.5,0,0,0,.5.75,2,2,0,0,0,.83.58,2.52,2.52,0,0,0,.92.25,2.09,2.09,0,0,0,1.08-.25,7.61,7.61,0,0,0,.83-.58,1.31,1.31,0,0,0,.5-.75A7.3,7.3,0,0,1,88,113Z"/></g></g></svg>