<svg xmlns="http://www.w3.org/2000/svg" viewBox="0 0 171.02 171.02"><defs><style>.cls-1{fill:#fff;}.cls-2{fill:#ff4c4c;}</style></defs><title>action-donate_1</title><g id="Layer_2" data-name="Layer 2"><g id="Layer_1_copy" data-name="Layer 1 copy"><rect class="cls-1" width="171.02" height="171.02"/><path class="cls-2" d="M96.7,91.85a25.18,25.18,0,0,1,2.67,2.76,16.62,16.62,0,0,1,2,3.09,15.62,15.62,0,0,1,1.25,3.51,16.88,16.88,0,0,1-.67,9.69,14.76,14.76,0,0,1-3.17,5,19.87,19.87,0,0,1-4.84,3.67A15.68,15.68,0,0,1,88,121.41v7.85H83v-7.85a15.66,15.66,0,0,1-5.93-1.84,18.39,18.39,0,0,1-4.76-3.67,16.59,16.59,0,0,1-3.17-5,15.61,15.61,0,0,1-1.17-6h5a11.12,11.12,0,0,0,.75,4.09,11.26,11.26,0,0,0,2.09,3.42A13.09,13.09,0,0,0,79,115a11.06,11.06,0,0,0,4,1.42V87.68l-9.18-7h-.17V80.5a17.48,17.48,0,0,1-2.42-2.59,16.48,16.48,0,0,1-1.84-3,13.92,13.92,0,0,1-1.09-3.26A17.67,17.67,0,0,1,68,68.14a15.63,15.63,0,0,1,1.17-6,16.66,16.66,0,0,1,3.17-5,18.46,18.46,0,0,1,4.76-3.67A15.71,15.71,0,0,1,83,51.61V43.76h5v7.85a15.73,15.73,0,0,1,5.93,1.84,19.94,19.94,0,0,1,4.84,3.67,14.82,14.82,0,0,1,3.17,5,16.72,16.72,0,0,1,1.09,6l-2.5.33L98,68.14A11.14,11.14,0,0,0,97.28,64a11.35,11.35,0,0,0-2.09-3.42A13.28,13.28,0,0,0,92,58a11.21,11.21,0,0,0-4-1.42V85.34l8.35,6.35h.17v.17ZM77,76.82l6,4.51V56.62A11.17,11.17,0,0,0,79,58a13.16,13.16,0,0,0-3.17,2.59A11.29,11.29,0,0,0,73.74,64,11.14,11.14,0,0,0,73,68.14a12.33,12.33,0,0,0,.25,2.42A10.43,10.43,0,0,0,74,72.9,9.33,9.33,0,0,0,75.32,75Q76.16,76,77,76.82ZM88,116.4A11.1,11.1,0,0,0,92,115a13.21,13.21,0,0,0,3.17-2.59A11.32,11.32,0,0,0,97.28,109a11.12,11.12,0,0,0,.75-4.09,13.18,13.18,0,0,0-.25-2.59,9.66,9.66,0,0,0-.83-2.42,11.41,11.41,0,0,0-1.42-2.17,10.82,10.82,0,0,0-2-1.84L88,91.69Z"/></g></g></svg>