<svg xmlns="http://www.w3.org/2000/svg" viewBox="0 0 171.02 171.02"><defs><style>.cls-1{fill:#fff;}.cls-2{fill:#ff4c4c;}</style></defs><title>action-volunteer_1</title><g id="Layer_2" data-name="Layer 2"><g id="Layer_1_copy" data-name="Layer 1 copy"><rect class="cls-1" width="171.02" height="171.02"/><path class="cls-2" d="M113.23,62.27V98.84a18.9,18.9,0,0,1-.33,3.34q-.34,1.84-.75,3.51t-1,3.51q-.59,1.84-1.09,3.34-.34,1.17-.67,2.09t-.67,1.92a8.86,8.86,0,0,0-.42,1.67,9.21,9.21,0,0,0-.08,1.17v3.67a2.1,2.1,0,0,1-.25,1.09,8,8,0,0,1-.58.83,1.32,1.32,0,0,1-.75.5l-1.09.25a7.46,7.46,0,0,0-.92-.25,1.31,1.31,0,0,1-.75-.5,7.61,7.61,0,0,1-.58-.83,2.1,2.1,0,0,1-.25-1.09v-3.67a8.44,8.44,0,0,1,.17-1.67,19,19,0,0,1,.5-1.92l.67-2.17q.33-1.08.83-2.59.5-1.33,1-3t.92-3.26q.41-1.58.75-3.17a13.69,13.69,0,0,0,.33-2.76V62.27a2.55,2.55,0,0,0-.25-.92,2,2,0,0,0-.58-.83q-.34-.25-.75-.5a1.06,1.06,0,0,0-.92-.08,1.27,1.27,0,0,0-1,.08,5.45,5.45,0,0,0-.83.5,1.47,1.47,0,0,0-.5.75,6.87,6.87,0,0,1-.33.83v.08h0V81.64a2.35,2.35,0,0,1-.17,1,4.34,4.34,0,0,1-.5.75,1.75,1.75,0,0,1-.83.58l-1,.33c-.33-.11-.64-.22-.92-.33a1.81,1.81,0,0,1-.75-.58c-.22-.28-.42-.53-.58-.75a1.66,1.66,0,0,1-.25-1V54.09a4.53,4.53,0,0,0-.08-1,2.13,2.13,0,0,0-.42-.75,1.9,1.9,0,0,0-.75-.58l-.92-.33a6.37,6.37,0,0,1-1,.25,1.33,1.33,0,0,0-.83.5l-.58.75a1.67,1.67,0,0,0-.25,1c0-.11-.06-.11-.17,0h0V76.63a3.65,3.65,0,0,1-.17.92,1.53,1.53,0,0,1-.5.83,5.6,5.6,0,0,1-.83.5,1.26,1.26,0,0,1-1,.08,1.05,1.05,0,0,1-.92-.08l-.83-.5a1.34,1.34,0,0,1-.58-.83,3.52,3.52,0,0,1-.17-.92V51.75h0V47.58a3.69,3.69,0,0,0-.17-.92,1.54,1.54,0,0,0-.5-.83,5.6,5.6,0,0,0-.83-.5,1.27,1.27,0,0,0-1-.08,1.41,1.41,0,0,0-1.09.08,8.5,8.5,0,0,0-.75.5,1.51,1.51,0,0,0-.5.83,3.56,3.56,0,0,0-.17.92v4.51h0V76.63a2.89,2.89,0,0,1-.17,1.17,3.07,3.07,0,0,1-.58.75,2.53,2.53,0,0,1-.83.58c-.28.11-.58.22-.92.33l-1-.33a1.74,1.74,0,0,1-.83-.58,4,4,0,0,1-.5-.75A2.84,2.84,0,0,1,78,76.63v-23h0v.08a3.35,3.35,0,0,0-.33-.92c-.11-.17-.28-.39-.5-.67a1.34,1.34,0,0,0-.83-.5,2.9,2.9,0,0,1-.83-.25,9,9,0,0,0-1.09.33,1.86,1.86,0,0,0-.75.58l-.58.75a1.67,1.67,0,0,0-.25,1V82.64a2.57,2.57,0,0,1-.08.75c-.06.17-.14.39-.25.67a1.05,1.05,0,0,1-.5.58,2.61,2.61,0,0,0-.67.5,3.91,3.91,0,0,0-.75.08,1.12,1.12,0,0,1-.75-.08l-.67-.33a2.48,2.48,0,0,1-.67-.5L62.8,78.14a3.3,3.3,0,0,0-1.25-1.25c-.39-.17-.75-.31-1.09-.42a.87.87,0,0,0-.83.08c-.22.17-.39.2-.5.08a.75.75,0,0,1-.42.42.81.81,0,0,0-.42.33,3.94,3.94,0,0,0-.25.42,1.14,1.14,0,0,0-.08.5.56.56,0,0,0-.17.42.9.9,0,0,0,.08.42,5.83,5.83,0,0,1,.25.83l16.53,35.4c.11,0,.22.08.33.25s.22.25.33.25a.84.84,0,0,1,.42.17.8.8,0,0,0,.42.17,7.07,7.07,0,0,1,.83.33,1.49,1.49,0,0,1,.58.58c.17.28.31.53.42.75a1.89,1.89,0,0,1,.17.83v4.34a2.1,2.1,0,0,1-.25,1.09,8,8,0,0,1-.58.83,1.32,1.32,0,0,1-.75.5,7.32,7.32,0,0,0-.92.25,6.37,6.37,0,0,0-1-.25,1.33,1.33,0,0,1-.83-.5,3.26,3.26,0,0,1-.5-.83,3,3,0,0,1-.17-1.09v-2.67a5.32,5.32,0,0,0-.92-.5,1.66,1.66,0,0,1-.75-.67,3.09,3.09,0,0,0-.67-.75,1.57,1.57,0,0,1-.5-.92L53.78,82.48c-.22-.44-.42-.86-.58-1.25a4.78,4.78,0,0,1-.33-1.42,5.81,5.81,0,0,1,0-1.42q.08-.58.25-1.59a13.33,13.33,0,0,1,.5-1.25,5.26,5.26,0,0,1,.75-1.25c.28-.33.61-.69,1-1.09a2.71,2.71,0,0,1,1.25-.75,6.58,6.58,0,0,1,2.59-1,8.2,8.2,0,0,1,2.59.08,7,7,0,0,1,2.59,1.09,11.1,11.1,0,0,1,2.25,2l1.17,1.5V53.92a7.81,7.81,0,0,1,.58-2.84,5.88,5.88,0,0,1,1.67-2.42,12.17,12.17,0,0,1,2.42-1.59,5.42,5.42,0,0,1,3-.5,1,1,0,0,1,.67-.08,2.35,2.35,0,0,0,.58.08,1.38,1.38,0,0,1,.58.17,1.46,1.46,0,0,0,.67.17,5.93,5.93,0,0,1,.67-2.67,6.65,6.65,0,0,1,1.67-2.17,9.75,9.75,0,0,1,2.34-1.42,5.49,5.49,0,0,1,2.84-.42,5.49,5.49,0,0,1,2.84.42,8.53,8.53,0,0,1,2.34,1.5,7.72,7.72,0,0,1,1.67,2.25,5.67,5.67,0,0,1,.67,2.5,1.48,1.48,0,0,0,.67-.17,1.15,1.15,0,0,1,.75-.08,1.12,1.12,0,0,0,.75-.08.72.72,0,0,1,.67,0,5,5,0,0,1,2.84.5A10.27,10.27,0,0,1,101,48.66a5.68,5.68,0,0,1,1.5,2.34,8.72,8.72,0,0,1,.5,2.92v1.5a1,1,0,0,1,.67-.33,1.48,1.48,0,0,0,.67-.17,1,1,0,0,1,.67-.08.93.93,0,0,0,.67-.08,12,12,0,0,1,3,.67A6,6,0,0,1,111.06,57a9.22,9.22,0,0,1,1.59,2.34,7.3,7.3,0,0,1,.58,3.09Z"/></g></g></svg>