<svg xmlns="http://www.w3.org/2000/svg" viewBox="0 0 171.02 171.02"><defs><style>.cls-1{fill:#fff;}.cls-2{fill:#ff4c4c;}</style></defs><title>action-story_1</title><g id="Layer_2" data-name="Layer 2"><g id="Layer_1_copy" data-name="Layer 1 copy"><rect class="cls-1" width="171.02" height="171.02"/><path class="cls-2" d="M128.26,92.65a7.44,7.44,0,0,1-.58,3A7.57,7.57,0,0,1,126.09,98a7.32,7.32,0,0,1-2.42,1.59,7.57,7.57,0,0,1-2.92.58h-2.5v-5h2.5a2.44,2.44,0,0,0,.92-.17,3.26,3.26,0,0,0,.83-.5,1.78,1.78,0,0,0,.58-.83,3.21,3.21,0,0,0,.17-1V52.58a2.49,2.49,0,0,0-.17-.92,2.93,2.93,0,0,0-1.42-1.42,2.49,2.49,0,0,0-.92-.17H50.27a2.48,2.48,0,0,0-.92.17,2.56,2.56,0,0,0-.83.58,2.53,2.53,0,0,0-.58.83,2.44,2.44,0,0,0-.17.92V92.65a3.12,3.12,0,0,0,.17,1,1.74,1.74,0,0,0,.58.83,3.16,3.16,0,0,0,.83.5,2.43,2.43,0,0,0,.92.17h7.51v14.53l9-7.85,3.34,3.84-17.37,15.2V100.17h-2.5a7.56,7.56,0,0,1-2.92-.58A7.29,7.29,0,0,1,44.93,98a7.52,7.52,0,0,1-1.59-2.34,7.39,7.39,0,0,1-.58-3V52.58a7.57,7.57,0,0,1,.58-2.92,7.1,7.1,0,0,1,4-4,7.62,7.62,0,0,1,2.92-.58h70.47a7.63,7.63,0,0,1,2.92.58,7.1,7.1,0,0,1,4,4,7.63,7.63,0,0,1,.58,2.92Zm-15,15.7a7.62,7.62,0,0,1-.58,2.92,7.1,7.1,0,0,1-4,4,7.57,7.57,0,0,1-2.92.58h-2.5v15.36L84.84,115.87H80.5a7.56,7.56,0,0,1-2.92-.58,7.1,7.1,0,0,1-4-4,7.56,7.56,0,0,1-.58-2.92V93a7,7,0,0,1,.58-2.84,8.69,8.69,0,0,1,1.59-2.42,6.77,6.77,0,0,1,2.42-1.67,7.62,7.62,0,0,1,2.92-.58h25.22a7.63,7.63,0,0,1,2.92.58,6.8,6.8,0,0,1,2.42,1.67,8.76,8.76,0,0,1,1.59,2.42,7,7,0,0,1,.58,2.84Zm-5.18-16.28a2.29,2.29,0,0,0-.5-.75,3.23,3.23,0,0,0-.83-.58,2.22,2.22,0,0,0-1-.25H80.5a2.22,2.22,0,0,0-1,.25,3.18,3.18,0,0,0-.83.58,2.21,2.21,0,0,0-.5.75A2.44,2.44,0,0,0,78,93v15.36a3.12,3.12,0,0,0,.17,1,2,2,0,0,0,1.34,1.34,3.12,3.12,0,0,0,1,.17h6.18l11.52,9.69v-9.69h7.51a3.12,3.12,0,0,0,1-.17,2.07,2.07,0,0,0,.83-.5,2.11,2.11,0,0,0,.5-.83,3.21,3.21,0,0,0,.17-1V93A2.49,2.49,0,0,0,108.05,92.07Z"/></g></g></svg>